:SAMPLES-PER-SECOND 30
:FULLY-SPECIFIED
:DEGREES
472
root  -12.044 38.0587 2.25401 21.5874 82.4046 25.863
RightUpLeg  14.0256 -2.29194 -7.99253
RightLeg  28.2342 4.09018 2.16231
RightFoot  -20.3083 0.734861 11.4173
RightToes  -1.33073e-015 0 -3.6325e-017
Spine  7.55434 4.30129 12.6605
Spine1  7.69542 6.67288 -7.22843
HEad  -7.93751 -50.8681 5.3809
LeftShoulder1  -0.0221514 3.56725 -28.9791
LeftArm  -8.78501 16.8666 -34.8134
LeftForeArm  33.5403 -9.52854 -5.70955
LeftHand  -0.0694051 7.36716 -1.62395
RightShoulder  -0.149206 -4.2283 12.968
RightArm  -31.6667 44.504 10.8793
RightForeArm  -24.0942 0.961162 -3.63527
RightHand  -0.605968 12.4581 -4.32988
LeftUpLeg  -20.141 3.47918 -7.27661
LeftLeg  16.3925 -0.0291642 -0.0153454
LeftFoot  7.26819 -1.09543 6.44639
LeftToes  -1.63346e-009 7.54925e-011 9.86887e-012
473
root  -10.6335 37.946 2.27129 28.1727 81.2036 32.6864
RightUpLeg  10.3937 0.00333367 -9.94892
RightLeg  38.4775 4.60697 3.64102
RightFoot  -14.6912 0.416512 17.883
RightToes  -1.33073e-015 0 -3.6325e-017
Spine  7.61867 4.55478 10.2064
Spine1  7.53468 6.61784 -7.45386
HEad  -5.23696 -46.9848 3.19254
LeftShoulder1  -0.0525239 3.65254 -29.226
LeftArm  -9.15549 17.1147 -35.0359
LeftForeArm  32.3703 -9.19564 -5.57863
LeftHand  -0.0911413 8.49852 -1.52369
RightShoulder  -0.227 -4.49792 15.2692
RightArm  -36.2276 39.1201 14.6688
RightForeArm  -17.3902 13.9158 -1.7196
RightHand  -0.99239 13.7245 -6.45965
LeftUpLeg  -19.9895 4.15634 -9.1411
LeftLeg  20.9425 0.226225 0.472725
LeftFoot  3.83665 -1.15451 8.45662
LeftToes  -1.63346e-009 7.54925e-011 9.86887e-012
474
root  -9.25008 38.0216 2.29035 30.0208 79.8158 35.1213
RightUpLeg  4.95522 3.57071 -10.9684
RightLeg  49.6798 4.43853 5.28593
RightFoot  -2.19306 -1.1933 16.2393
RightToes  -1.33073e-015 0 -3.6325e-017
Spine  8.03184 4.60825 8.31131
Spine1  7.51867 6.50121 -7.70677
HEad  -3.46488 -41.6363 0.887803
LeftShoulder1  -0.0674543 3.69363 -29.2106
LeftArm  -9.38818 17.5014 -35.911
LeftForeArm  31.7313 -9.62011 -5.45806
LeftHand  -0.0809137 8.01149 -1.32743
RightShoulder  -0.379404 -4.98349 18.6587
RightArm  -44.9323 33.1524 17.2275
RightForeArm  -1.76884 28.9826 6.91696
RightHand  -1.15604 13.0057 -7.69495
LeftUpLeg  -17.8475 4.43445 -10.2944
LeftLeg  22.536 1.34129 0.960086
LeftFoot  0.800322 -0.991871 9.24269
LeftToes  -1.63346e-009 7.54925e-011 9.86887e-012
475
root  -7.95073 38.0943 2.36228 30.9864 78.4554 36.3267
RightUpLeg  -1.39043 6.62736 -11.5927
RightLeg  59.12 4.22599 7.09628
RightFoot  8.02483 -1.77565 10.3938
RightToes  -1.33073e-015 0 -3.6325e-017
Spine  7.99282 4.59384 5.58163
Spine1  7.74676 5.92343 -6.76832
HEad  -2.76579 -34.9424 -1.04452
LeftShoulder1  -0.19192 4.03823 -29.8144
LeftArm  -8.59284 17.2469 -36.6442
LeftForeArm  31.5322 -10.5291 -5.68329
LeftHand  -0.0676993 7.26503 -1.37971
RightShoulder  -0.466437 -5.12426 21.8876
RightArm  -35.8645 27.5329 20.3016
RightForeArm  0.787156 43.6354 10.6726
RightHand  -1.27552 12.7326 -8.55111
LeftUpLeg  -15.9549 4.39923 -11.2621
LeftLeg  23.6182 2.6108 1.60137
LeftFoot  -1.79264 -0.770374 9.32156
LeftToes  -1.63346e-009 7.54925e-011 9.86887e-012
476
root  -6.62034 38.2762 2.461 30.4435 78.771 35.8112
RightUpLeg  -6.12088 7.81274 -11.0858
RightLeg  63.985 3.56578 7.3727
RightFoot  4.85989 -1.54337 11.0288
RightToes  -1.33073e-015 0 -3.6325e-017
Spine  7.12463 3.94672 3.82713
Spine1  8.21755 4.62018 -4.98024
HEad  -2.70822 -28.1726 -2.65081
LeftShoulder1  -0.228673 4.13277 -30.1917
LeftArm  -7.58895 16.7544 -38.0616
LeftForeArm  31.2706 -11.7684 -5.82317
LeftHand  -0.0804365 7.76062 -1.75639
RightShoulder  -0.574894 -5.33593 24.6394
RightArm  -28.4818 21.2021 23.1462
RightForeArm  7.72937 55.8969 16.1723
RightHand  -1.39901 12.4712 -9.50304
LeftUpLeg  -13.5231 3.73706 -11.0758
LeftLeg  23.6175 3.14406 1.82468
LeftFoot  -4.10159 -0.555404 9.1501
LeftToes  -1.63346e-009 7.54925e-011 9.86887e-012
477
root  -5.32464 38.5226 2.57326 29.0084 79.4996 34.244
RightUpLeg  -10.8627 7.92581 -10.3243
RightLeg  65.2192 3.17216 6.90566
RightFoot  3.89726 -1.21716 9.30369
RightToes  -1.33073e-015 0 -3.6325e-017
Spine  6.84981 3.16678 2.641
Spine1  7.77995 3.31038 -3.41298
HEad  -1.87235 -21.3405 -4.7712
LeftShoulder1  -0.314631 4.35293 -30.9311
LeftArm  -6.02964 15.6334 -39.0745
LeftForeArm  30.7126 -12.969 -5.93409
LeftHand  -0.0657199 7.24879 -1.50232
RightShoulder  -0.70434 -5.60172 26.8658
RightArm  -20.603 13.7784 25.5256
RightForeArm  17.191 64.5239 22.6503
RightHand  -1.52908 11.5874 -10.7806
LeftUpLeg  -10.7885 2.8296 -10.4436
LeftLeg  22.626 3.60669 1.8401
LeftFoot  -5.77137 -0.409246 9.11665
LeftToes  -1.63346e-009 7.54925e-011 9.86887e-012
478
root  -4.01091 38.7749 2.6897 27.1296 80.4212 32.1501
RightUpLeg  -14.7367 7.74524 -9.31887
RightLeg  62.8616 2.38224 4.53698
RightFoot  2.11904 -1.08127 9.24728
RightToes  -1.33073e-015 0 -3.6325e-017
Spine  6.25301 2.41934 1.57771
Spine1  7.54876 2.08552 -1.60777
HEad  -1.63129 -15.4739 -6.37654
LeftShoulder1  -0.386371 4.53862 -31.2026
LeftArm  -3.41876 14.2034 -40.6181
LeftForeArm  29.2039 -14.5138 -5.99445
LeftHand  -0.0542187 7.15862 -0.935689
RightShoulder  -0.883994 -5.99443 28.9347
RightArm  -12.2974 6.31449 27.1811
RightForeArm  24.4796 68.5972 27.452
RightHand  -1.91166 14.3401 -11.614
LeftUpLeg  -7.77793 2.65195 -9.59413
LeftLeg  20.9336 3.25129 1.43049
LeftFoot  -7.24497 -0.289652 9.29627
LeftToes  -1.63346e-009 7.54925e-011 9.86887e-012
479
root  -2.74247 38.9804 2.80679 25.5065 81.3549 30.3932
RightUpLeg  -17.7979 7.4081 -8.35894
RightLeg  57.486 1.65699 2.37535
RightFoot  1.02605 -0.817515 7.61029
RightToes  -1.33073e-015 0 -3.6325e-017
Spine  5.63376 1.66727 0.351729
Spine1  7.77565 0.853608 0.446953
HEad  -2.0605 -9.94439 -7.47319
LeftShoulder1  -0.446311 4.68379 -31.677
LeftArm  0.019642 12.2835 -42.0982
LeftForeArm  26.6116 -16.6138 -5.64707
LeftHand  -0.0368516 7.15695 0.102622
RightShoulder  -0.947219 -6.09123 30.0332
RightArm  -4.66618 -0.38985 28.9802
RightForeArm  30.1668 68.1302 25.9036
RightHand  -1.48842 12.3313 -10.1131
LeftUpLeg  -4.69771 2.92249 -8.78295
LeftLeg  19.0744 2.36426 0.940884
LeftFoot  -8.48773 -0.183298 9.39808
LeftToes  -1.63346e-009 7.54925e-011 9.86887e-012
480
root  -1.46834 39.1264 2.91349 23.1644 82.44 28.3563
RightUpLeg  -18.9184 6.91114 -7.39304
RightLeg  48.7548 1.20883 1.13914
RightFoot  -0.582512 -0.744379 7.86314
RightToes  -1.33073e-015 0 -3.6325e-017
Spine  5.80245 0.838568 -0.354028
Spine1  7.62958 -0.259752 1.91187
HEad  -2.64968 -5.2792 -7.88876
LeftShoulder1  -0.549889 4.94124 -32.1108
LeftArm  4.91293 10.3227 -43.0734
LeftForeArm  23.3481 -19.35 -4.88573
LeftHand  -0.0315313 6.21881 0.291087
RightShoulder  -1.01057 -6.22255 30.6127
RightArm  2.07981 -6.24175 31.4627
RightForeArm  28.1933 62.4509 19.3529
RightHand  -1.03656 11.4586 -7.53129
LeftUpLeg  -1.21519 3.58414 -7.82301
LeftLeg  17.3158 1.01053 0.47698
LeftFoot  -9.82894 -0.0666311 9.47713
LeftToes  -1.63346e-009 7.54925e-011 9.86887e-012
481
root  -0.215586 39.1342 3.04028 23.3038 83.5348 28.3705
RightUpLeg  -19.5141 6.10651 -6.80822
RightLeg  37.8593 1.01463 0.581936
RightFoot  -2.03337 -0.714005 8.57838
RightToes  -1.33073e-015 0 -3.6325e-017
Spine  5.52035 0.0822152 -1.21942
Spine1  7.65176 -1.21229 3.01436
HEad  -3.48474 -1.47173 -8.00298
LeftShoulder1  -0.590057 5.03122 -32.484
LeftArm  8.88002 8.41894 -43.7159
LeftForeArm  20.5713 -22.6473 -4.06569
LeftHand  -0.0247755 6.11163 1.1259
RightShoulder  -1.04401 -6.28107 31.0278
RightArm  7.78467 -10.1029 34.5183
RightForeArm  22.5632 51.5436 12.4277
RightHand  -0.784141 9.64044 -6.44245
LeftUpLeg  1.20628 4.0121 -7.13978
LeftLeg  16.6108 -0.378315 0.249359
LeftFoot  -11.5371 0.086262 9.43277
LeftToes  -1.63346e-009 7.54925e-011 9.86887e-012
482
root  1.06324 39.0966 3.17984 25.7118 84.196 30.7088
RightUpLeg  -19.213 5.19329 -6.6428
RightLeg  25.5616 1.01316 0.404528
RightFoot  -2.28816 -0.718306 8.85444
RightToes  -1.33073e-015 0 -3.6325e-017
Spine  5.47165 -0.288222 -1.88032
Spine1  7.38559 -1.6003 3.62113
HEad  -4.19369 1.12716 -7.13162
LeftShoulder1  -0.587971 5.02406 -32.5278
LeftArm  10.0238 6.63052 -44.2624
LeftForeArm  21.0738 -25.6092 -4.3322
LeftHand  -0.0264226 5.54266 1.39161
RightShoulder  -1.12453 -6.43264 31.8477
RightArm  15.5682 -11.8786 37.4305
RightForeArm  12.4146 36.6576 7.42394
RightHand  -0.673478 9.50925 -5.66706
LeftUpLeg  3.90761 4.27311 -6.86528
LeftLeg  15.4825 -1.18873 0.214217
LeftFoot  -12.8924 0.208253 9.64813
LeftToes  -1.63346e-009 7.54925e-011 9.86887e-012
483
root  2.37211 39.0102 3.32144 29.0793 84.5161 34.1151
RightUpLeg  -18.4903 2.97207 -6.06953
RightLeg  13.6817 3.10542 0.116085
RightFoot  -2.66285 -0.643076 8.22828
RightToes  -1.33073e-015 0 -3.6325e-017
Spine  4.96073 -0.299734 -2.24073
Spine1  7.95838 -1.63115 4.09925
HEad  -4.87301 2.9236 -6.95972
LeftShoulder1  -0.553816 4.92608 -32.7915
LeftArm  10.1064 4.75349 -44.8218
LeftForeArm  22.2514 -28.246 -4.89206
LeftHand  -0.0215224 5.82799 2.08258
RightShoulder  -1.19447 -6.54106 32.7584
RightArm  23.4182 -11.3232 40.6322
RightForeArm  4.71088 18.8507 5.36544
RightHand  -0.415588 8.30932 -3.69712
LeftUpLeg  6.83793 4.7373 -6.55264
LeftLeg  14.2461 -2.05038 -0.0853995
LeftFoot  -14.3931 0.343113 9.58324
LeftToes  -1.63346e-009 7.54925e-011 9.86887e-012
